<?xml version="1.0" encoding="UTF-8" standalone="no"?>
<svg
   xmlns:dc="http://purl.org/dc/elements/1.1/"
   xmlns:cc="http://creativecommons.org/ns#"
   xmlns:rdf="http://www.w3.org/1999/02/22-rdf-syntax-ns#"
   xmlns:svg="http://www.w3.org/2000/svg"
   xmlns="http://www.w3.org/2000/svg"
   xmlns:sodipodi="http://sodipodi.sourceforge.net/DTD/sodipodi-0.dtd"
   xmlns:inkscape="http://www.inkscape.org/namespaces/inkscape"
   width="55.828251mm"
   height="60.554977mm"
   viewBox="0 0 55.82825 60.554978"
   version="1.1"
   id="svg8"
   inkscape:version="1.0.1 (3bc2e813f5, 2020-09-07)">
  <defs
     id="defs2" />
  <sodipodi:namedview
     id="base"
     pagecolor="#c8cac6"
     bordercolor="#666666"
     borderopacity="1.0"
     inkscape:pageopacity="0"
     inkscape:pageshadow="2"
     inkscape:zoom="0.49497475"
     inkscape:cx="253.92042"
     inkscape:cy="33.59549"
     inkscape:document-units="mm"
     inkscape:current-layer="layer1"
     inkscape:document-rotation="0"
     showgrid="false"
     inkscape:pagecheckerboard="true"
     inkscape:window-width="1920"
     inkscape:window-height="1057"
     inkscape:window-x="1072"
     inkscape:window-y="394"
     inkscape:window-maximized="1"
     fit-margin-top="0"
     fit-margin-left="0"
     fit-margin-right="0"
     fit-margin-bottom="0" />
  <metadata
     id="metadata5">
    <rdf:RDF>
      <cc:Work
         rdf:about="">
        <dc:format>image/svg+xml</dc:format>
        <dc:type
           rdf:resource="http://purl.org/dc/dcmitype/StillImage" />
        <dc:title></dc:title>
      </cc:Work>
    </rdf:RDF>
  </metadata>
  <g
     inkscape:label="Layer 1"
     inkscape:groupmode="layer"
     id="layer1"
     transform="translate(-61.63506,-69.257118)">
    <circle
       style="fill:#ffffff;stroke-width:1.5;stroke-opacity:0.55"
       id="circle862"
       r="30"
       cy="99.115929"
       cx="269.83032" />
    <circle
       style="fill:#bababa;fill-opacity:1;stroke-width:1.5;stroke-opacity:0.55"
       id="circle864"
       cx="269.83032"
       cy="99.115929"
       r="25.796875" />
    <rect
       style="fill:#bababa;fill-opacity:1;stroke-width:1.5;stroke-opacity:0.55"
       id="rect866"
       width="30"
       height="30"
       x="239.83034"
       y="69.115929" />
    <path
       id="rect901"
       style="fill:#ffffff;fill-opacity:1;stroke-width:5.66929;stroke-opacity:0.55"
       d="m 258.46875,1.4863281 a 8.2142861,8.2142861 0 0 0 -7.07813,4.1074219 8.2142861,8.2142861 0 0 0 0.26954,8.646484 L 199.29688,104.93359 188.64453,8.9277344 H 80.285156 L 55.714844,230.35547 H 213.21484 L 200.66016,117.20703 257.99609,17.898438 a 8.2142861,8.2142861 0 0 0 7.62305,-4.089844 8.2142861,8.2142861 0 0 0 -3.00781,-11.2207034 8.2142861,8.2142861 0 0 0 -4.14258,-1.1015625 z M 89.130859,21.427734 H 179.79883 L 190.71484,119.80078 145,198.98047 V 50.714844 H 123.92969 V 206.70312 H 68.572266 Z m 102.945311,110.646486 8.28125,74.6289 h -51.36719 z"
       transform="matrix(0.26458333,0,0,0.26458333,46.893841,68.863878)" />
  </g>
</svg>
