<?xml version="1.0" encoding="UTF-8" standalone="no"?>
<svg
   xmlns:dc="http://purl.org/dc/elements/1.1/"
   xmlns:cc="http://creativecommons.org/ns#"
   xmlns:rdf="http://www.w3.org/1999/02/22-rdf-syntax-ns#"
   xmlns:svg="http://www.w3.org/2000/svg"
   xmlns="http://www.w3.org/2000/svg"
   width="75.657021mm"
   height="63.355576mm"
   viewBox="0 0 75.65702 63.355576"
   version="1.1"
   id="svg8">
  <defs
     id="defs2" />
  <metadata
     id="metadata5">
    <rdf:RDF>
      <cc:Work
         rdf:about="">
        <dc:format>image/svg+xml</dc:format>
        <dc:type
           rdf:resource="http://purl.org/dc/dcmitype/StillImage" />
        <dc:title></dc:title>
      </cc:Work>
    </rdf:RDF>
  </metadata>
  <g
     id="layer1"
     transform="translate(-46.893841,-68.863878)">
    <path
       id="path895"
       style="fill:#ffffff;stroke-width:5.6693;stroke-opacity:0.55"
       d="m 351.02734,334.75 -6.48437,6.26953 a 55.355887,55.355887 0 0 1 0,77.96094 l 6.48437,6.26953 a 64.375109,64.375109 0 0 0 0,-90.5 z"
       transform="scale(0.26458333)" />
    <path
       id="path891"
       style="fill:#ffffff;stroke-width:5.6693;stroke-opacity:0.55"
       d="m 418.16992,269.83398 -15.84375,15.32032 a 135.27403,135.27403 0 0 1 -0.002,189.6914 l 15.8457,15.32032 a 157.31443,157.31443 0 0 0 0,-220.33204 z"
       transform="scale(0.26458333)" />
    <path
       id="path888"
       style="fill:#ffffff;stroke-width:5.6693;stroke-opacity:0.55"
       d="m 380.37695,306.37305 -10.52734,10.17968 a 89.883806,89.883806 0 0 1 -0.002,126.89454 l 10.53125,10.17968 a 104.52872,104.52872 0 0 0 -0.002,-147.2539 z"
       transform="scale(0.26458333)" />
    <path
       style="fill:#ffffff;stroke-width:2.17414;stroke-opacity:0.55"
       id="path833"
       d="m 19.175262,100.54167 67.621035,-39.041019 -4e-6,78.082039 z"
       transform="matrix(0.58664177,0,0,0.81139751,36.546137,18.962402)" />
    <rect
       style="fill:#ffffff;stroke-width:1.5;stroke-opacity:0.55"
       id="rect835"
       width="25.842957"
       height="27.928988"
       x="46.893841"
       y="86.577171" />
    <circle
       style="fill:#ffffff;stroke-width:1.5;stroke-opacity:0.55"
       id="circle862"
       r="30"
       cy="99.115929"
       cx="269.83032" />
    <circle
       style="fill:#bababa;fill-opacity:1;stroke-width:1.5;stroke-opacity:0.55"
       id="circle864"
       cx="269.83032"
       cy="99.115929"
       r="25.796875" />
    <rect
       style="fill:#bababa;fill-opacity:1;stroke-width:1.5;stroke-opacity:0.55"
       id="rect866"
       width="30"
       height="30"
       x="239.83034"
       y="69.115929" />
  </g>
</svg>
